# xmcd
#
# Track frame offsets:
#	150
#	9094
#	17656
#	30476
#	39306
#	47828
#	60013
#	74278
#	86244
#	97267
#	107570
#	120732
#	131949
#
# Disc length: 1896 seconds
#
# Revision: 2
# Processed by: cddbd v1.5.2PL0 Copyright (c) Steve Scherf et al.
# Submitted via: audiograbber 1.83.01
#
DISCID=a207660d
DTITLE=Ofarim, Esther - Esther Ofarim in New York with Bobby Scott andhis Orche
DTITLE=stra
DYEAR=2006
DGENRE=Jazz
TTITLE0=Ofarim, Esther - To The Ends Of The Earth
TTITLE1=Ofarim, Esther - Night And Day (Cole Porter)
TTITLE2=Ofarim, Esther - A taste of honey
TTITLE3=Ofarim, Esther - By myself
TTITLE4=Ofarim, Esther - Old devil moon
TTITLE5=Ofarim, Esther - Earthquake
TTITLE6=Ofarim, Esther - Is it really me
TTITLE7=Ofarim, Esther - Speak low
TTITLE8=Ofarim, Esther - Somewhere
TTITLE9=Ofarim, Esther - Here I´ll stay
TTITLE10=Ofarim, Esther - Somebody, Somewhere
TTITLE11=Ofarim, Esther - I have dreamed
TTITLE12=Ofarim, Esther - He´s mine
EXTD=YEAR: 2006
EXTT0=
EXTT1=
EXTT2=
EXTT3=
EXTT4=
EXTT5=
EXTT6=
EXTT7=
EXTT8=
EXTT9=
EXTT10=
EXTT11=
EXTT12=
PLAYORDER=
